<svg width="18" height="19" viewBox="0 0 18 19" fill="none" xmlns="http://www.w3.org/2000/svg">
<g id="message-square">
<path id="Vector" d="M15.75 11.75C15.75 12.1478 15.592 12.5294 15.3107 12.8107C15.0294 13.092 14.6478 13.25 14.25 13.25H5.25L2.25 16.25V4.25C2.25 3.85218 2.40804 3.47064 2.68934 3.18934C2.97064 2.90804 3.35218 2.75 3.75 2.75H14.25C14.6478 2.75 15.0294 2.90804 15.3107 3.18934C15.592 3.47064 15.75 3.85218 15.75 4.25V11.75Z" stroke="#A1A1A1" style="stroke:#A1A1A1;stroke:color(display-p3 0.6321 0.6321 0.6321);stroke-opacity:1;" stroke-width="2" stroke-linecap="round" stroke-linejoin="round"/>
<path id="Vector_2" d="M9.00039 8.90973C9.43855 8.90973 9.79375 8.55453 9.79375 8.11637C9.79375 7.67821 9.43855 7.32301 9.00039 7.32301C8.56223 7.32301 8.20703 7.67821 8.20703 8.11637C8.20703 8.55453 8.56223 8.90973 9.00039 8.90973Z" fill="#A1A1A1" style="fill:#A1A1A1;fill:color(display-p3 0.6321 0.6321 0.6321);fill-opacity:1;"/>
<path id="Vector_3" d="M12.1742 8.90973C12.6124 8.90973 12.9676 8.55453 12.9676 8.11637C12.9676 7.67821 12.6124 7.32301 12.1742 7.32301C11.7361 7.32301 11.3809 7.67821 11.3809 8.11637C11.3809 8.55453 11.7361 8.90973 12.1742 8.90973Z" fill="#A1A1A1" style="fill:#A1A1A1;fill:color(display-p3 0.6321 0.6321 0.6321);fill-opacity:1;"/>
<path id="Vector_4" d="M5.82656 8.90973C6.26472 8.90973 6.61992 8.55453 6.61992 8.11637C6.61992 7.67821 6.26472 7.32301 5.82656 7.32301C5.3884 7.32301 5.0332 7.67821 5.0332 8.11637C5.0332 8.55453 5.3884 8.90973 5.82656 8.90973Z" fill="#A1A1A1" style="fill:#A1A1A1;fill:color(display-p3 0.6321 0.6321 0.6321);fill-opacity:1;"/>
</g>
</svg>
