<svg width="17" height="17" viewBox="0 0 17 17" fill="none" xmlns="http://www.w3.org/2000/svg">
<g id="Icon/Feather Icon" clip-path="url(#clip0_513_12041)">
<path id="Vector" d="M11.6064 14.5V13.1667C11.6064 12.4594 11.3255 11.7811 10.8254 11.281C10.3253 10.781 9.64702 10.5 8.93978 10.5H4.27311C3.56587 10.5 2.88759 10.781 2.38749 11.281C1.8874 11.7811 1.60645 12.4594 1.60645 13.1667V14.5" stroke="#232323" style="stroke:#232323;stroke:color(display-p3 0.1356 0.1356 0.1356);stroke-opacity:1;" stroke-width="1.5" stroke-linecap="round" stroke-linejoin="round"/>
<path id="Vector_2" d="M6.60612 7.83333C8.07888 7.83333 9.27279 6.63943 9.27279 5.16667C9.27279 3.69391 8.07888 2.5 6.60612 2.5C5.13336 2.5 3.93945 3.69391 3.93945 5.16667C3.93945 6.63943 5.13336 7.83333 6.60612 7.83333Z" stroke="#232323" style="stroke:#232323;stroke:color(display-p3 0.1356 0.1356 0.1356);stroke-opacity:1;" stroke-width="1.5" stroke-linecap="round" stroke-linejoin="round"/>
<g id="Group 15">
<path id="Vector_3" d="M11.4316 7.5H16.1457" stroke="#232323" style="stroke:#232323;stroke:color(display-p3 0.1356 0.1356 0.1356);stroke-opacity:1;" stroke-width="1.5" stroke-linecap="round" stroke-linejoin="round"/>
<path id="Vector_4" d="M13.7887 5.14298V9.85702" stroke="#232323" style="stroke:#232323;stroke:color(display-p3 0.1356 0.1356 0.1356);stroke-opacity:1;" stroke-width="1.5" stroke-linecap="round" stroke-linejoin="round"/>
</g>
</g>
<defs>
<clipPath id="clip0_513_12041">
<rect width="16" height="16" fill="white" style="fill:white;fill-opacity:1;" transform="translate(0.939453 0.5)"/>
</clipPath>
</defs>
</svg>
