<svg width="18" height="19" viewBox="0 0 18 19" fill="none" xmlns="http://www.w3.org/2000/svg">
<g id="Icon/Lucide Icon">
<path id="Vector" d="M4.5 13.5833L6 9.83331H16.5L14.25 15.8333C14.1031 16.0935 13.8819 16.3039 13.6146 16.4375C13.3474 16.5711 13.0463 16.6219 12.75 16.5833H3C2.60218 16.5833 2.22064 16.4253 1.93934 16.144C1.65804 15.8627 1.5 15.4811 1.5 15.0833V4.58331C1.5 4.18549 1.65804 3.80396 1.93934 3.52265C2.22064 3.24135 2.60218 3.08331 3 3.08331H6.75L8.25 5.33331H13.5C13.8978 5.33331 14.2794 5.49135 14.5607 5.77265C14.842 6.05396 15 6.43549 15 6.83331V9.83331" stroke="currentColor" stroke-width="2" stroke-linecap="round" stroke-linejoin="round"/>
</g>
</svg>
