<svg width="18" height="19" viewBox="0 0 18 19" fill="none" xmlns="http://www.w3.org/2000/svg">
<g id="message-square">
<path id="Vector" d="M15.75 11.5833C15.75 11.9811 15.592 12.3627 15.3107 12.644C15.0294 12.9253 14.6478 13.0833 14.25 13.0833H5.25L2.25 16.0833V4.08331C2.25 3.68549 2.40804 3.30396 2.68934 3.02265C2.97064 2.74135 3.35218 2.58331 3.75 2.58331H14.25C14.6478 2.58331 15.0294 2.74135 15.3107 3.02265C15.592 3.30396 15.75 3.68549 15.75 4.08331V11.5833Z" stroke="#A1A1A1" style="stroke:#A1A1A1;stroke:color(display-p3 0.6321 0.6321 0.6321);stroke-opacity:1;" stroke-width="2" stroke-linecap="round" stroke-linejoin="round"/>
<path id="Vector_2" d="M9.00039 8.74303C9.43855 8.74303 9.79375 8.38783 9.79375 7.94967C9.79375 7.51151 9.43855 7.15631 9.00039 7.15631C8.56223 7.15631 8.20703 7.51151 8.20703 7.94967C8.20703 8.38783 8.56223 8.74303 9.00039 8.74303Z" fill="#A1A1A1" style="fill:#A1A1A1;fill:color(display-p3 0.6321 0.6321 0.6321);fill-opacity:1;"/>
<path id="Vector_3" d="M12.1742 8.74303C12.6124 8.74303 12.9676 8.38783 12.9676 7.94967C12.9676 7.51151 12.6124 7.15631 12.1742 7.15631C11.7361 7.15631 11.3809 7.51151 11.3809 7.94967C11.3809 8.38783 11.7361 8.74303 12.1742 8.74303Z" fill="#A1A1A1" style="fill:#A1A1A1;fill:color(display-p3 0.6321 0.6321 0.6321);fill-opacity:1;"/>
<path id="Vector_4" d="M5.82656 8.74303C6.26472 8.74303 6.61992 8.38783 6.61992 7.94967C6.61992 7.51151 6.26472 7.15631 5.82656 7.15631C5.3884 7.15631 5.0332 7.51151 5.0332 7.94967C5.0332 8.38783 5.3884 8.74303 5.82656 8.74303Z" fill="#A1A1A1" style="fill:#A1A1A1;fill:color(display-p3 0.6321 0.6321 0.6321);fill-opacity:1;"/>
</g>
</svg>
