<svg width="17" height="17" viewBox="0 0 17 17" fill="none" xmlns="http://www.w3.org/2000/svg">
<g id="Icon/Feather Icon" clip-path="url(#clip0_513_12065)">
<path id="Vector" d="M8.93945 10.5C10.044 10.5 10.9395 9.60457 10.9395 8.5C10.9395 7.39543 10.044 6.5 8.93945 6.5C7.83488 6.5 6.93945 7.39543 6.93945 8.5C6.93945 9.60457 7.83488 10.5 8.93945 10.5Z" stroke="#212121" style="stroke:#212121;stroke:color(display-p3 0.1294 0.1294 0.1294);stroke-opacity:1;" stroke-width="1.5" stroke-linecap="round" stroke-linejoin="round"/>
<path id="Vector_2" d="M13.8731 10.5001C13.7844 10.7012 13.7579 10.9242 13.7971 11.1405C13.8363 11.3567 13.9394 11.5563 14.0931 11.7134L14.1331 11.7534C14.2571 11.8772 14.3554 12.0243 14.4225 12.1862C14.4896 12.348 14.5242 12.5215 14.5242 12.6967C14.5242 12.872 14.4896 13.0455 14.4225 13.2073C14.3554 13.3692 14.2571 13.5163 14.1331 13.6401C14.0093 13.764 13.8622 13.8624 13.7004 13.9295C13.5385 13.9966 13.365 14.0311 13.1898 14.0311C13.0146 14.0311 12.8411 13.9966 12.6792 13.9295C12.5173 13.8624 12.3703 13.764 12.2464 13.6401L12.2064 13.6001C12.0493 13.4464 11.8498 13.3433 11.6335 13.3041C11.4172 13.2649 11.1942 13.2913 10.9931 13.3801C10.7959 13.4646 10.6278 13.6049 10.5093 13.7838C10.3909 13.9626 10.3273 14.1722 10.3264 14.3867V14.5001C10.3264 14.8537 10.186 15.1928 9.93592 15.4429C9.68587 15.6929 9.34673 15.8334 8.99311 15.8334C8.63949 15.8334 8.30035 15.6929 8.0503 15.4429C7.80025 15.1928 7.65978 14.8537 7.65978 14.5001V14.4401C7.65462 14.2194 7.58319 14.0054 7.45479 13.8259C7.32638 13.6464 7.14694 13.5096 6.93978 13.4334C6.7387 13.3447 6.51565 13.3182 6.29939 13.3574C6.08312 13.3966 5.88356 13.4997 5.72645 13.6534L5.68645 13.6934C5.56261 13.8174 5.41556 13.9157 5.2537 13.9828C5.09183 14.0499 4.91833 14.0845 4.74311 14.0845C4.56789 14.0845 4.39439 14.0499 4.23252 13.9828C4.07066 13.9157 3.92361 13.8174 3.79978 13.6934C3.67581 13.5696 3.57746 13.4225 3.51037 13.2607C3.44327 13.0988 3.40873 12.9253 3.40873 12.7501C3.40873 12.5749 3.44327 12.4014 3.51037 12.2395C3.57746 12.0776 3.67581 11.9306 3.79978 11.8067L3.83978 11.7667C3.99347 11.6096 4.09657 11.4101 4.13578 11.1938C4.17499 10.9775 4.14852 10.7545 4.05978 10.5534C3.97527 10.3562 3.83495 10.1881 3.65609 10.0696C3.47723 9.95117 3.26764 9.8876 3.05311 9.88675H2.93978C2.58616 9.88675 2.24702 9.74627 1.99697 9.49622C1.74692 9.24618 1.60645 8.90704 1.60645 8.55341C1.60645 8.19979 1.74692 7.86065 1.99697 7.61061C2.24702 7.36056 2.58616 7.22008 2.93978 7.22008H2.99978C3.22044 7.21492 3.43445 7.14349 3.61398 7.01509C3.79351 6.88668 3.93026 6.70724 4.00645 6.50008C4.09519 6.299 4.12166 6.07595 4.08245 5.85969C4.04324 5.64343 3.94014 5.44387 3.78645 5.28675L3.74645 5.24675C3.62248 5.12292 3.52413 4.97587 3.45703 4.814C3.38993 4.65214 3.3554 4.47864 3.3554 4.30341C3.3554 4.12819 3.38993 3.95469 3.45703 3.79283C3.52413 3.63096 3.62248 3.48391 3.74645 3.36008C3.87028 3.23611 4.01733 3.13777 4.17919 3.07067C4.34106 3.00357 4.51456 2.96903 4.68978 2.96903C4.865 2.96903 5.0385 3.00357 5.20037 3.07067C5.36223 3.13777 5.50928 3.23611 5.63311 3.36008L5.67311 3.40008C5.83023 3.55377 6.02979 3.65687 6.24605 3.69608C6.46232 3.7353 6.68537 3.70882 6.88645 3.62008H6.93978C7.13696 3.53557 7.30512 3.39525 7.42357 3.21639C7.54202 3.03753 7.60559 2.82794 7.60645 2.61341V2.50008C7.60645 2.14646 7.74692 1.80732 7.99697 1.55727C8.24702 1.30722 8.58616 1.16675 8.93978 1.16675C9.2934 1.16675 9.63254 1.30722 9.88259 1.55727C10.1326 1.80732 10.2731 2.14646 10.2731 2.50008V2.56008C10.274 2.77461 10.3375 2.9842 10.456 3.16306C10.5744 3.34192 10.7426 3.48224 10.9398 3.56675C11.1409 3.65549 11.3639 3.68196 11.5802 3.64275C11.7964 3.60354 11.996 3.50044 12.1531 3.34675L12.1931 3.30675C12.3169 3.18278 12.464 3.08443 12.6259 3.01734C12.7877 2.95024 12.9612 2.9157 13.1364 2.9157C13.3117 2.9157 13.4852 2.95024 13.647 3.01734C13.8089 3.08443 13.9559 3.18278 14.0798 3.30675C14.2037 3.43058 14.3021 3.57763 14.3692 3.73949C14.4363 3.90136 14.4708 4.07486 14.4708 4.25008C14.4708 4.4253 14.4363 4.5988 14.3692 4.76067C14.3021 4.92253 14.2037 5.06958 14.0798 5.19341L14.0398 5.23341C13.8861 5.39053 13.783 5.59009 13.7438 5.80636C13.7046 6.02262 13.731 6.24567 13.8198 6.44675V6.50008C13.9043 6.69726 14.0446 6.86543 14.2235 6.98388C14.4023 7.10233 14.6119 7.16589 14.8264 7.16675H14.9398C15.2934 7.16675 15.6325 7.30722 15.8826 7.55727C16.1326 7.80732 16.2731 8.14646 16.2731 8.50008C16.2731 8.8537 16.1326 9.19284 15.8826 9.44289C15.6325 9.69294 15.2934 9.83341 14.9398 9.83341H14.8798C14.6653 9.83427 14.4557 9.89784 14.2768 10.0163C14.0979 10.1347 13.9576 10.3029 13.8731 10.5001V10.5001Z" stroke="#212121" style="stroke:#212121;stroke:color(display-p3 0.1294 0.1294 0.1294);stroke-opacity:1;" stroke-width="1.5" stroke-linecap="round" stroke-linejoin="round"/>
</g>
<defs>
<clipPath id="clip0_513_12065">
<rect width="16" height="16" fill="white" style="fill:white;fill-opacity:1;" transform="translate(0.939453 0.5)"/>
</clipPath>
</defs>
</svg>
